{
    "asset" : {
        "generator" : "Khronos glTF Blender I/O v1.8.19",
        "version" : "2.0"
    },
    "scene" : 0,
    "scenes" : [
        {
            "name" : "Scene",
            "nodes" : [
                0
            ]
        }
    ],
    "nodes" : [
        {
            "mesh" : 0,
            "name" : "Cylinder"
        }
    ],
    "meshes" : [
        {
            "name" : "Cylinder.001",
            "primitives" : [
                {
                    "attributes" : {
                        "POSITION" : 0,
                        "NORMAL" : 1,
                        "TEXCOORD_0" : 2
                    },
                    "indices" : 3
                }
            ]
        }
    ],
    "accessors" : [
        {
            "bufferView" : 0,
            "componentType" : 5126,
            "count" : 1890,
            "max" : [
                3.876458168029785,
                2.0024290084838867,
                1.3969529867172241
            ],
            "min" : [
                -1.3969529867172241,
                0.9783359169960022,
                -1.3969529867172241
            ],
            "type" : "VEC3"
        },
        {
            "bufferView" : 1,
            "componentType" : 5126,
            "count" : 1890,
            "type" : "VEC3"
        },
        {
            "bufferView" : 2,
            "componentType" : 5126,
            "count" : 1890,
            "type" : "VEC2"
        },
        {
            "bufferView" : 3,
            "componentType" : 5123,
            "count" : 2088,
            "type" : "SCALAR"
        }
    ],
    "bufferViews" : [
        {
            "buffer" : 0,
            "byteLength" : 22680,
            "byteOffset" : 0
        },
        {
            "buffer" : 0,
            "byteLength" : 22680,
            "byteOffset" : 22680
        },
        {
            "buffer" : 0,
            "byteLength" : 15120,
            "byteOffset" : 45360
        },
        {
            "buffer" : 0,
            "byteLength" : 4176,
            "byteOffset" : 60480
        }
    ],
    "buffers" : [
        {
            "byteLength" : 64656,
            "uri" : "turret.bin"
        }
    ]
}
