{
    "asset" : {
        "generator" : "Khronos glTF Blender I/O v1.8.19",
        "version" : "2.0"
    },
    "scene" : 0,
    "scenes" : [
        {
            "name" : "Scene",
            "nodes" : [
                0
            ]
        }
    ],
    "nodes" : [
        {
            "mesh" : 0,
            "name" : "Turret",
            "rotation" : [
                0,
                0.7071068286895752,
                0,
                0.7071068286895752
            ],
            "scale" : [
                1.3969529867172241,
                0.48830726742744446,
                1.3969529867172241
            ],
            "translation" : [
                0,
                1.499672770500183,
                0
            ]
        }
    ],
    "meshes" : [
        {
            "name" : "Cylinder",
            "primitives" : [
                {
                    "attributes" : {
                        "POSITION" : 0,
                        "NORMAL" : 1,
                        "TEXCOORD_0" : 2
                    },
                    "indices" : 3
                }
            ]
        }
    ],
    "accessors" : [
        {
            "bufferView" : 0,
            "componentType" : 5126,
            "count" : 1160,
            "max" : [
                2.7749381065368652,
                1.029590129852295,
                1
            ],
            "min" : [
                -1,
                -1.067641019821167,
                -1
            ],
            "type" : "VEC3"
        },
        {
            "bufferView" : 1,
            "componentType" : 5126,
            "count" : 1160,
            "type" : "VEC3"
        },
        {
            "bufferView" : 2,
            "componentType" : 5126,
            "count" : 1160,
            "type" : "VEC2"
        },
        {
            "bufferView" : 3,
            "componentType" : 5123,
            "count" : 2088,
            "type" : "SCALAR"
        }
    ],
    "bufferViews" : [
        {
            "buffer" : 0,
            "byteLength" : 13920,
            "byteOffset" : 0
        },
        {
            "buffer" : 0,
            "byteLength" : 13920,
            "byteOffset" : 13920
        },
        {
            "buffer" : 0,
            "byteLength" : 9280,
            "byteOffset" : 27840
        },
        {
            "buffer" : 0,
            "byteLength" : 4176,
            "byteOffset" : 37120
        }
    ],
    "buffers" : [
        {
            "byteLength" : 41296,
            "uri" : "data:application/octet-stream;base64,"
        }
    ]
}
