{
    "asset" : {
        "generator" : "Khronos glTF Blender I/O v1.8.19",
        "version" : "2.0"
    },
    "scene" : 0,
    "scenes" : [
        {
            "name" : "Scene",
            "nodes" : [
                1
            ]
        }
    ],
    "nodes" : [
        {
            "name" : "Empty",
            "translation" : [
                0,
                1.5174490213394165,
                -3.5182783603668213
            ]
        },
        {
            "children" : [
                0
            ],
            "mesh" : 0,
            "name" : "Turret"
        }
    ],
    "meshes" : [
        {
            "name" : "Cylinder",
            "primitives" : [
                {
                    "attributes" : {
                        "POSITION" : 0,
                        "NORMAL" : 1,
                        "TEXCOORD_0" : 2
                    },
                    "indices" : 3
                }
            ]
        }
    ],
    "accessors" : [
        {
            "bufferView" : 0,
            "componentType" : 5126,
            "count" : 1195,
            "max" : [
                1.3969529867172241,
                2.0024290084838867,
                1.3969529867172241
            ],
            "min" : [
                -1.3969529867172241,
                0.9783359169960022,
                -3.876458168029785
            ],
            "type" : "VEC3"
        },
        {
            "bufferView" : 1,
            "componentType" : 5126,
            "count" : 1195,
            "type" : "VEC3"
        },
        {
            "bufferView" : 2,
            "componentType" : 5126,
            "count" : 1195,
            "type" : "VEC2"
        },
        {
            "bufferView" : 3,
            "componentType" : 5123,
            "count" : 2088,
            "type" : "SCALAR"
        }
    ],
    "bufferViews" : [
        {
            "buffer" : 0,
            "byteLength" : 14340,
            "byteOffset" : 0
        },
        {
            "buffer" : 0,
            "byteLength" : 14340,
            "byteOffset" : 14340
        },
        {
            "buffer" : 0,
            "byteLength" : 9560,
            "byteOffset" : 28680
        },
        {
            "buffer" : 0,
            "byteLength" : 4176,
            "byteOffset" : 38240
        }
    ],
    "buffers" : [
        {
            "byteLength" : 42416,
            "uri" : "data:application/octet-stream;base64,"
        }
    ]
}
