{
	"asset":{
		"generator":"Khronos glTF Blender I/O v3.5.30",
		"version":"2.0"
	},
	"scene":0,
	"scenes":[
		{
			"name":"Scene",
			"nodes":[
				0
			]
		}
	],
	"nodes":[
		{
			"mesh":0,
			"name":"Body",
			"rotation":[
				0,
				0.7071068286895752,
				0,
				0.7071068286895752
			]
		}
	],
	"materials":[
		{
			"doubleSided":true,
			"name":"Material.017",
			"pbrMetallicRoughness":{
				"baseColorFactor":[
					0.707585334777832,
					0.5332341194152832,
					0.0065877060405910015,
					1
				],
				"metallicFactor":0,
				"roughnessFactor":0.5
			}
		},
		{
			"doubleSided":true,
			"name":"Material.022",
			"pbrMetallicRoughness":{
				"baseColorFactor":[
					0.34134647250175476,
					0.35576096177101135,
					0.4392770826816559,
					1
				],
				"metallicFactor":0,
				"roughnessFactor":0.5
			}
		},
		{
			"doubleSided":true,
			"name":"Material.021",
			"pbrMetallicRoughness":{
				"baseColorFactor":[
					0.036669738590717316,
					0.036669738590717316,
					0.036669738590717316,
					1
				],
				"metallicFactor":0,
				"roughnessFactor":0.5
			}
		},
		{
			"doubleSided":true,
			"name":"Material.023",
			"pbrMetallicRoughness":{
				"baseColorFactor":[
					0.051267918199300766,
					0.042211487889289856,
					0.07027677446603775,
					1
				],
				"metallicFactor":0,
				"roughnessFactor":0.5
			}
		}
	],
	"meshes":[
		{
			"name":"Body",
			"primitives":[
				{
					"attributes":{
						"POSITION":0,
						"NORMAL":1
					},
					"indices":2,
					"material":0
				},
				{
					"attributes":{
						"POSITION":3,
						"NORMAL":4
					},
					"indices":5,
					"material":1
				},
				{
					"attributes":{
						"POSITION":6,
						"NORMAL":7
					},
					"indices":8,
					"material":2
				},
				{
					"attributes":{
						"POSITION":9,
						"NORMAL":10
					},
					"indices":11,
					"material":3
				}
			]
		}
	],
	"accessors":[
		{
			"bufferView":0,
			"componentType":5126,
			"count":728,
			"max":[
				3.0379676818847656,
				4.057789325714111,
				3.4660696983337402
			],
			"min":[
				-3.4871087074279785,
				0.39084815979003906,
				-3.4433975219726562
			],
			"type":"VEC3"
		},
		{
			"bufferView":1,
			"componentType":5126,
			"count":728,
			"type":"VEC3"
		},
		{
			"bufferView":2,
			"componentType":5123,
			"count":1272,
			"type":"SCALAR"
		},
		{
			"bufferView":3,
			"componentType":5126,
			"count":5214,
			"max":[
				3.051250696182251,
				3.0525269508361816,
				3.5028610229492188
			],
			"min":[
				-3.0383729934692383,
				0.10680627822875977,
				-3.4182019233703613
			],
			"type":"VEC3"
		},
		{
			"bufferView":4,
			"componentType":5126,
			"count":5214,
			"type":"VEC3"
		},
		{
			"bufferView":5,
			"componentType":5123,
			"count":9936,
			"type":"SCALAR"
		},
		{
			"bufferView":6,
			"componentType":5126,
			"count":3328,
			"max":[
				3.230290174484253,
				3.2703540325164795,
				3.482720375061035
			],
			"min":[
				-3.187786102294922,
				0.015732765197753906,
				-3.4180116653442383
			],
			"type":"VEC3"
		},
		{
			"bufferView":7,
			"componentType":5126,
			"count":3328,
			"type":"VEC3"
		},
		{
			"bufferView":8,
			"componentType":5123,
			"count":4992,
			"type":"SCALAR"
		},
		{
			"bufferView":9,
			"componentType":5126,
			"count":2298,
			"max":[
				3.377471923828125,
				4.728325843811035,
				1.5291807651519775
			],
			"min":[
				-3.937501907348633,
				0.48204803466796875,
				-1.5116032361984253
			],
			"type":"VEC3"
		},
		{
			"bufferView":10,
			"componentType":5126,
			"count":2298,
			"type":"VEC3"
		},
		{
			"bufferView":11,
			"componentType":5123,
			"count":4050,
			"type":"SCALAR"
		}
	],
	"bufferViews":[
		{
			"buffer":0,
			"byteLength":8736,
			"byteOffset":0,
			"target":34962
		},
		{
			"buffer":0,
			"byteLength":8736,
			"byteOffset":8736,
			"target":34962
		},
		{
			"buffer":0,
			"byteLength":2544,
			"byteOffset":17472,
			"target":34963
		},
		{
			"buffer":0,
			"byteLength":62568,
			"byteOffset":20016,
			"target":34962
		},
		{
			"buffer":0,
			"byteLength":62568,
			"byteOffset":82584,
			"target":34962
		},
		{
			"buffer":0,
			"byteLength":19872,
			"byteOffset":145152,
			"target":34963
		},
		{
			"buffer":0,
			"byteLength":39936,
			"byteOffset":165024,
			"target":34962
		},
		{
			"buffer":0,
			"byteLength":39936,
			"byteOffset":204960,
			"target":34962
		},
		{
			"buffer":0,
			"byteLength":9984,
			"byteOffset":244896,
			"target":34963
		},
		{
			"buffer":0,
			"byteLength":27576,
			"byteOffset":254880,
			"target":34962
		},
		{
			"buffer":0,
			"byteLength":27576,
			"byteOffset":282456,
			"target":34962
		},
		{
			"buffer":0,
			"byteLength":8100,
			"byteOffset":310032,
			"target":34963
		}
	],
	"buffers":[
		{
			"byteLength":318132,
			"uri":"data:application/octet-stream;base64,"
		}
	]
}
