{
	"asset":{
		"generator":"Khronos glTF Blender I/O v3.5.30",
		"version":"2.0"
	},
	"scene":0,
	"scenes":[
		{
			"name":"Scene",
			"nodes":[
				0
			]
		}
	],
	"nodes":[
		{
			"mesh":0,
			"name":"Projectile",
			"rotation":[
				0,
				0.7071068286895752,
				0,
				0.7071068286895752
			]
		}
	],
	"materials":[
		{
			"doubleSided":true,
			"name":"Material.016",
			"pbrMetallicRoughness":{
				"baseColorFactor":[
					0.6034964919090271,
					0.06463257968425751,
					0.02121843583881855,
					1
				],
				"metallicFactor":0,
				"roughnessFactor":0.5
			}
		},
		{
			"doubleSided":true,
			"name":"Material.014",
			"pbrMetallicRoughness":{
				"baseColorFactor":[
					0.800000011920929,
					0.800000011920929,
					0.800000011920929,
					1
				],
				"metallicFactor":0,
				"roughnessFactor":0.5
			}
		}
	],
	"meshes":[
		{
			"name":"Projectile",
			"primitives":[
				{
					"attributes":{
						"POSITION":0,
						"NORMAL":1
					},
					"indices":2,
					"material":0
				},
				{
					"attributes":{
						"POSITION":3,
						"NORMAL":4
					},
					"indices":5,
					"material":1
				}
			]
		}
	],
	"accessors":[
		{
			"bufferView":0,
			"componentType":5126,
			"count":144,
			"max":[
				0.3479590117931366,
				0.697823703289032,
				0.6551612615585327
			],
			"min":[
				-0.46875154972076416,
				-0.6227566599845886,
				-0.6654191017150879
			],
			"type":"VEC3"
		},
		{
			"bufferView":1,
			"componentType":5126,
			"count":144,
			"type":"VEC3"
		},
		{
			"bufferView":2,
			"componentType":5123,
			"count":216,
			"type":"SCALAR"
		},
		{
			"bufferView":3,
			"componentType":5126,
			"count":336,
			"max":[
				0.5831403136253357,
				0.4628104269504547,
				0.46281057596206665
			],
			"min":[
				-0.521077573299408,
				-0.4748886823654175,
				-0.47488856315612793
			],
			"type":"VEC3"
		},
		{
			"bufferView":4,
			"componentType":5126,
			"count":336,
			"type":"VEC3"
		},
		{
			"bufferView":5,
			"componentType":5123,
			"count":564,
			"type":"SCALAR"
		}
	],
	"bufferViews":[
		{
			"buffer":0,
			"byteLength":1728,
			"byteOffset":0,
			"target":34962
		},
		{
			"buffer":0,
			"byteLength":1728,
			"byteOffset":1728,
			"target":34962
		},
		{
			"buffer":0,
			"byteLength":432,
			"byteOffset":3456,
			"target":34963
		},
		{
			"buffer":0,
			"byteLength":4032,
			"byteOffset":3888,
			"target":34962
		},
		{
			"buffer":0,
			"byteLength":4032,
			"byteOffset":7920,
			"target":34962
		},
		{
			"buffer":0,
			"byteLength":1128,
			"byteOffset":11952,
			"target":34963
		}
	],
	"buffers":[
		{
			"byteLength":13080,
			"uri":"data:application/octet-stream;base64,"
		}
	]
}
