{
	"asset":{
		"generator":"Khronos glTF Blender I/O v3.5.30",
		"version":"2.0"
	},
	"scene":0,
	"scenes":[
		{
			"name":"Scene",
			"nodes":[
				0
			]
		}
	],
	"nodes":[
		{
			"mesh":0,
			"name":"Turret",
			"rotation":[
				0,
				0.7071068286895752,
				0,
				0.7071068286895752
			],
			"translation":[
				0,
				5.620691776275635,
				-0.06125307083129883
			]
		}
	],
	"materials":[
		{
			"doubleSided":true,
			"name":"Material.017",
			"pbrMetallicRoughness":{
				"baseColorFactor":[
					0.707585334777832,
					0.5332341194152832,
					0.0065877060405910015,
					1
				],
				"metallicFactor":0,
				"roughnessFactor":0.5
			}
		},
		{
			"doubleSided":true,
			"name":"Material.021",
			"pbrMetallicRoughness":{
				"baseColorFactor":[
					0.036669738590717316,
					0.036669738590717316,
					0.036669738590717316,
					1
				],
				"metallicFactor":0,
				"roughnessFactor":0.5
			}
		},
		{
			"doubleSided":true,
			"name":"Material.023",
			"pbrMetallicRoughness":{
				"baseColorFactor":[
					0.051267918199300766,
					0.042211487889289856,
					0.07027677446603775,
					1
				],
				"metallicFactor":0,
				"roughnessFactor":0.5
			}
		}
	],
	"meshes":[
		{
			"name":"TUrret",
			"primitives":[
				{
					"attributes":{
						"POSITION":0,
						"NORMAL":1
					},
					"indices":2,
					"material":0
				},
				{
					"attributes":{
						"POSITION":3,
						"NORMAL":4
					},
					"indices":5,
					"material":1
				},
				{
					"attributes":{
						"POSITION":6,
						"NORMAL":7
					},
					"indices":8,
					"material":2
				}
			]
		}
	],
	"accessors":[
		{
			"bufferView":0,
			"componentType":5126,
			"count":786,
			"max":[
				4.024131774902344,
				1.6250853538513184,
				1.6154412031173706
			],
			"min":[
				-3.1791229248046875,
				-1.5417687892913818,
				-1.6669243574142456
			],
			"type":"VEC3"
		},
		{
			"bufferView":1,
			"componentType":5126,
			"count":786,
			"type":"VEC3"
		},
		{
			"bufferView":2,
			"componentType":5123,
			"count":1290,
			"type":"SCALAR"
		},
		{
			"bufferView":3,
			"componentType":5126,
			"count":546,
			"max":[
				-2.5291996002197266,
				3.1319684982299805,
				0.021485257893800735
			],
			"min":[
				-3.4196970462799072,
				1.0074559450149536,
				-0.08313211053609848
			],
			"type":"VEC3"
		},
		{
			"bufferView":4,
			"componentType":5126,
			"count":546,
			"type":"VEC3"
		},
		{
			"bufferView":5,
			"componentType":5123,
			"count":846,
			"type":"SCALAR"
		},
		{
			"bufferView":6,
			"componentType":5126,
			"count":2494,
			"max":[
				4.024131774902344,
				1.0850731134414673,
				2.141622543334961
			],
			"min":[
				-3.299741744995117,
				-1.051493763923645,
				-2.133258819580078
			],
			"type":"VEC3"
		},
		{
			"bufferView":7,
			"componentType":5126,
			"count":2494,
			"type":"VEC3"
		},
		{
			"bufferView":8,
			"componentType":5123,
			"count":3930,
			"type":"SCALAR"
		}
	],
	"bufferViews":[
		{
			"buffer":0,
			"byteLength":9432,
			"byteOffset":0,
			"target":34962
		},
		{
			"buffer":0,
			"byteLength":9432,
			"byteOffset":9432,
			"target":34962
		},
		{
			"buffer":0,
			"byteLength":2580,
			"byteOffset":18864,
			"target":34963
		},
		{
			"buffer":0,
			"byteLength":6552,
			"byteOffset":21444,
			"target":34962
		},
		{
			"buffer":0,
			"byteLength":6552,
			"byteOffset":27996,
			"target":34962
		},
		{
			"buffer":0,
			"byteLength":1692,
			"byteOffset":34548,
			"target":34963
		},
		{
			"buffer":0,
			"byteLength":29928,
			"byteOffset":36240,
			"target":34962
		},
		{
			"buffer":0,
			"byteLength":29928,
			"byteOffset":66168,
			"target":34962
		},
		{
			"buffer":0,
			"byteLength":7860,
			"byteOffset":96096,
			"target":34963
		}
	],
	"buffers":[
		{
			"byteLength":103956,
			"uri":"data:application/octet-stream;base64,"
		}
	]
}
